<svg id="Capa_1" enable-background="new 0 0 499.408 499.408" height="512" viewBox="0 0 499.408 499.408" width="512" xmlns="http://www.w3.org/2000/svg"><g><path d="m397.594 242.385c-1.29-15.159 2.924-31.439 6.231-40.537 1.254-3.45-1.281-7.095-4.951-7.095h-51.8l-20.657-23.693h-56.628s-10.624-20.141-10.624-42.968c0-20.885-7.225-21.977-23.07-23.799 0 0 12.343-36.771 31.934-54.235 20.885-18.618 31.63-16.432 31.63-27.846 0-9.714-7.454-14.712-16.695-14.712-9.242 0-20.915 10.16-33.74 21.285-7.421 6.437-15.858 15.219-29.633 13.001-3.499-.563-6.917 1.311-8.215 4.609-2.174 5.523-5.813 12.73-10.007 12.73-3.932 0-8.35-2.598-11.378-4.79-2.687-1.945-6.329-1.901-8.996.071-6.659 4.924-16.931 16.758-14.595 42.117-13.272 5.376-23.29 14.006-28.204 18.815-1.726 1.688-1.887 4.427-.309 6.254l-21.137 2.442s5.081 113.026 6.509 141.965l277.702-10c-1.689-4.065-2.942-8.614-3.367-13.614z" fill="#f8e883"/><path d="m137.83 246.513s-7.821-10.124-7.372-16.144c.818-10.959 8.529-28.176 4.767-45.732-5.828-27.198-18.477-60.603-18.477-60.603-3.424.396-5.746 3.677-4.968 7.035 1.55 6.694 1.88 17.519-8.275 25.963-2.016 1.677-2.681 4.48-1.585 6.862 3.13 6.801 9.157 21.386 13.305 40.743 3.762 17.555-3.949 34.773-4.767 45.732-.124 1.664.385 3.641 1.184 5.631l20.709 10z" fill="#eec06b"/><path d="m413.836 308.196c-4.278-5.283-9.092-10.372-14.793-14.969l11.624-8.592c3.895-2.879 4.435-8.508 1.132-12.051-3.611-3.874-7.895-9.486-10.84-16.583h-277.702c.233 4.729.369 7.48.369 7.48l-34.56 56.64 47.698 38.345c.814.654 1.751 1.126 2.763 1.386 6.434 1.65 32.364 8.904 54.285 23.7l140.022-10 .664-7.5h17.606c4.107 0 7.688-3.164 7.811-7.269.128-4.247-3.278-7.731-7.497-7.731h-16.593l2.023-22.855z" fill="#5a86cc"/><path d="m201.455 361.135c-26.713-17.485-57.311-11.656-57.311-11.656l-47.854-31.03 36.062-62.449h-20.709c2.093 5.211 6.188 10.513 6.188 10.513l-19.913 34.484s-8.621-1.821-18.092 5.464c-6.962 5.355-7.871 16.198-7.642 23.197.128 3.936 2.195 7.551 5.5 9.693l42.735 27.711c2.303 1.494 5.039 2.152 7.771 1.883 6.968-.684 22.033-1.173 38.011 4.605l27.611 10 23.737-10c-5.032-4.549-10.387-8.679-16.094-12.415z" fill="#3b68b0"/><path d="m413.836 308.196h-74.22l-1.77 20h53.991c3.637 0 7.08-1.639 9.373-4.461l2.388-2.939c5.51 5.945 8.594 13.567 8.656 21.25.032 4.029 3.115 7.537 7.139 7.726 4.306.202 7.862-3.229 7.862-7.491.001-13.539-4.375-23.176-13.419-34.085z" fill="#3b68b0"/><path d="m332.989 383.078.843-9.527h-116.284c1.407.95-20.936 1.948-19.568 3.026 44.686 35.224 44.391 77.177 67.726 68.344 39.209-14.841 61.92 2.4 61.92 2.4l-18.634 35.038 32.331-10c4.037-15.57 8.455-32.612 10.548-40.686 4.371-16.861-1.397-38.881-18.882-48.595z" fill="#d97b7b"/><path d="m338.566 436.173s-9.307-9.955-26.86-9.955c-15.032 0-20.931 2.874-32.083 7.807-10.388 4.595-22.609-.048-27.164-10.453-9.137-20.874-20.7-37.166-34.911-50.021h-51.348c5.07 1.833 10.231 4.296 15.255 7.584 21.826 14.286 38.627 34.166 50.998 62.421 4.558 10.411 16.777 15.066 27.171 10.469 11.152-4.933 17.05-7.807 32.083-7.807 17.552 0 26.86 9.955 26.86 9.955l-15.794 29.197c-1.707 3.155.578 6.988 4.165 6.988h15.368l4.787 5.44c2.509 2.851 7.185 1.737 8.138-1.94 1.555-5.999 3.76-14.504 6.093-23.5h-22.331z" fill="#d16161"/><g fill="#f8e883"><path d="m116.78 20.519c-4.067-.785-6.728-4.718-5.943-8.786l1.091-5.654c.785-4.067 4.722-6.723 8.786-5.943 4.067.785 6.728 4.718 5.943 8.786l-1.091 5.654c-.786 4.067-4.719 6.727-8.786 5.943z"/><path d="m119.71 40.46-3.959 20.521c-.785 4.067-4.718 6.728-8.785 5.943s-6.728-4.718-5.943-8.785l3.959-20.521c.785-4.067 4.718-6.728 8.785-5.943 4.066.785 6.727 4.718 5.943 8.785z"/></g></g></svg>