<?xml version="1.0" encoding="utf-8"?>
<!-- Generator: Adobe Illustrator 16.0.0, SVG Export Plug-In . SVG Version: 6.00 Build 0)  -->
<!DOCTYPE svg PUBLIC "-//W3C//DTD SVG 1.1//EN" "http://www.w3.org/Graphics/SVG/1.1/DTD/svg11.dtd">
<svg version="1.1" id="Capa_1" xmlns="http://www.w3.org/2000/svg" xmlns:xlink="http://www.w3.org/1999/xlink" x="0px" y="0px"
	 width="417.955px" height="207.353px" viewBox="0 0 417.955 207.353" enable-background="new 0 0 417.955 207.353"
	 xml:space="preserve">
<g>
	<g>
		<g>
			<path fill="#04529D" d="M125.552,34.745h8.504l12.727,35.971h-8.15l-2.375-7.393h-13.246l-2.438,7.393h-7.863L125.552,34.745z
				 M125.056,57.12h9.213l-4.547-14.154L125.056,57.12z"/>
			<path fill="#04529D" d="M171.259,45.64c1.742,1.441,2.613,3.827,2.613,7.16v17.916h-7.127v-16.18c0-1.4-0.186-2.474-0.557-3.223
				c-0.68-1.367-1.971-2.052-3.877-2.052c-2.342,0-3.947,1.005-4.82,3.003c-0.453,1.058-0.68,2.408-0.68,4.053v14.398h-6.953V44.161
				h6.734v3.881c0.891-1.365,1.732-2.352,2.527-2.952c1.426-1.072,3.232-1.608,5.422-1.608
				C167.276,43.481,169.519,44.197,171.259,45.64z"/>
			<path fill="#04529D" d="M176.444,49.313v-4.953h3.711V36.94h6.881v7.419h4.32v4.953h-4.32v14.057
				c0,1.091,0.139,1.771,0.416,2.038c0.275,0.27,1.123,0.402,2.537,0.402c0.213,0,0.436-0.004,0.672-0.01
				c0.236-0.012,0.467-0.022,0.695-0.04v5.202l-3.295,0.118c-3.287,0.114-5.531-0.454-6.734-1.706
				c-0.779-0.799-1.172-2.027-1.172-3.687V49.313H176.444z"/>
			<path fill="#04529D" d="M216.587,66.937c-2.246,2.771-5.654,4.158-10.225,4.158c-4.574,0-7.98-1.387-10.227-4.158
				c-2.244-2.768-3.367-6.105-3.367-10.008c0-3.836,1.123-7.158,3.367-9.975c2.246-2.811,5.652-4.219,10.227-4.219
				c4.57,0,7.979,1.408,10.225,4.219c2.246,2.816,3.367,6.139,3.367,9.975C219.954,60.831,218.833,64.169,216.587,66.937z
				 M211.024,63.096c1.088-1.447,1.635-3.503,1.635-6.167c0-2.663-0.547-4.715-1.635-6.154c-1.094-1.437-2.652-2.157-4.688-2.157
				c-2.033,0-3.6,0.721-4.697,2.157c-1.098,1.439-1.646,3.491-1.646,6.154c0,2.664,0.549,4.72,1.646,6.167
				c1.098,1.444,2.664,2.167,4.697,2.167C208.372,65.263,209.931,64.54,211.024,63.096z"/>
			<path fill="#04529D" d="M245.396,45.64c1.74,1.441,2.611,3.827,2.611,7.16v17.916h-7.125v-16.18c0-1.4-0.188-2.474-0.557-3.223
				c-0.682-1.367-1.971-2.052-3.879-2.052c-2.34,0-3.949,1.005-4.822,3.003c-0.449,1.058-0.678,2.408-0.678,4.053v14.398h-6.955
				V44.161h6.736v3.881c0.889-1.365,1.734-2.352,2.531-2.952c1.424-1.072,3.229-1.608,5.416-1.608
				C241.415,43.481,243.653,44.197,245.396,45.64z"/>
			<path fill="#04529D" d="M260.454,40.942h-7.053v-6.418h7.053V40.942z M253.401,44.114h7.053v26.602h-7.053V44.114z"/>
			<path fill="#04529D" d="M288.392,66.937c-2.246,2.771-5.654,4.158-10.227,4.158s-7.98-1.387-10.227-4.158
				c-2.244-2.768-3.371-6.105-3.371-10.008c0-3.836,1.127-7.158,3.371-9.975c2.246-2.811,5.654-4.219,10.227-4.219
				s7.98,1.408,10.227,4.219c2.246,2.816,3.365,6.139,3.365,9.975C291.757,60.831,290.638,64.169,288.392,66.937z M282.827,63.096
				c1.086-1.447,1.633-3.503,1.633-6.167c0-2.663-0.547-4.715-1.633-6.154c-1.092-1.437-2.654-2.157-4.689-2.157
				c-2.029,0-3.6,0.721-4.693,2.157c-1.102,1.439-1.65,3.491-1.65,6.154c0,2.664,0.549,4.72,1.65,6.167
				c1.094,1.444,2.664,2.167,4.693,2.167C280.173,65.263,281.735,64.54,282.827,63.096z"/>
			<path fill="#04529D" d="M315.577,56.573v0.832c0.061,2.781,0.35,4.736,0.861,5.87c0.51,1.131,1.607,1.696,3.285,1.696
				c1.67,0,2.768-0.619,3.307-1.857c0.314-0.731,0.48-1.969,0.48-3.709V34.244h7.518v25.039c0,3.06-0.52,5.482-1.555,7.272
				c-1.75,3.027-4.908,4.539-9.473,4.539c-4.568,0-7.627-1.225-9.186-3.672c-1.561-2.447-2.342-5.789-2.342-10.018v-0.832H315.577z"
				/>
			<path fill="#04529D" d="M359.376,66.937c-2.246,2.771-5.654,4.158-10.227,4.158s-7.98-1.387-10.223-4.158
				c-2.246-2.768-3.371-6.105-3.371-10.008c0-3.836,1.125-7.158,3.371-9.975c2.242-2.811,5.65-4.219,10.223-4.219
				s7.98,1.408,10.227,4.219c2.242,2.816,3.365,6.139,3.365,9.975C362.741,60.831,361.618,64.169,359.376,66.937z M353.812,63.096
				c1.09-1.447,1.633-3.503,1.633-6.167c0-2.663-0.543-4.715-1.633-6.154c-1.092-1.437-2.654-2.157-4.688-2.157
				c-2.035,0-3.596,0.721-4.697,2.157c-1.098,1.439-1.645,3.491-1.645,6.154c0,2.664,0.547,4.72,1.645,6.167
				c1.102,1.444,2.662,2.167,4.697,2.167C351.157,65.263,352.72,64.54,353.812,63.096z"/>
			<path fill="#04529D" d="M372.044,61.699c0.15,1.237,0.467,2.116,0.957,2.639c0.867,0.925,2.471,1.39,4.805,1.39
				c1.371,0,2.467-0.205,3.273-0.612c0.814-0.407,1.217-1.015,1.217-1.829c0-0.781-0.324-1.375-0.98-1.781
				c-0.646-0.407-3.072-1.108-7.275-2.1c-3.02-0.748-5.15-1.684-6.389-2.807c-1.234-1.105-1.854-2.699-1.854-4.784
				c0-2.456,0.965-4.565,2.896-6.332c1.932-1.765,4.652-2.646,8.158-2.646c3.326,0,6.037,0.663,8.131,1.987
				c2.096,1.328,3.299,3.617,3.609,6.872h-6.955c-0.098-0.896-0.352-1.605-0.762-2.124c-0.766-0.943-2.072-1.414-3.914-1.414
				c-1.521,0-2.6,0.234-3.24,0.705c-0.648,0.471-0.967,1.025-0.967,1.66c0,0.799,0.34,1.375,1.023,1.73
				c0.688,0.379,3.105,1.02,7.264,1.93c2.773,0.652,4.85,1.635,6.232,2.952c1.363,1.335,2.047,3.002,2.047,5.003
				c0,2.636-0.979,4.788-2.943,6.455c-1.965,1.67-5.004,2.502-9.107,2.502c-4.191,0-7.285-0.882-9.281-2.646
				c-2.002-1.768-2.998-4.014-2.998-6.749H372.044z"/>
			<path fill="#04529D" d="M411.005,44.129c1.852,0.831,3.387,2.146,4.596,3.938c1.088,1.58,1.797,3.412,2.121,5.496
				c0.184,1.225,0.262,2.984,0.225,5.281h-19.373c0.109,2.667,1.037,4.539,2.783,5.611c1.063,0.666,2.34,1.001,3.834,1.001
				c1.584,0,2.871-0.407,3.861-1.22c0.545-0.439,1.02-1.048,1.434-1.832h7.102c-0.188,1.58-1.047,3.186-2.576,4.809
				c-2.383,2.588-5.725,3.881-10.012,3.881c-3.537,0-6.664-1.092-9.371-3.272c-2.707-2.182-4.061-5.73-4.061-10.651
				c0-4.607,1.225-8.139,3.664-10.598c2.445-2.459,5.617-3.689,9.516-3.689C407.062,42.884,409.146,43.297,411.005,44.129z
				 M400.597,50.14c-0.982,1.012-1.598,2.384-1.852,4.115h11.982c-0.123-1.848-0.744-3.247-1.852-4.201
				c-1.109-0.957-2.482-1.437-4.125-1.437C402.966,48.617,401.583,49.125,400.597,50.14z M412.974,32.706l-7.42,7.297h-5.025
				l4.684-7.297H412.974z"/>
		</g>
		<g>
			<path fill="#04529D" d="M119.79,93.507c4.104-4.193,9.326-6.289,15.664-6.289c8.48,0,14.684,2.812,18.604,8.435
				c2.168,3.156,3.33,6.324,3.49,9.506h-10.648c-0.676-2.443-1.545-4.286-2.607-5.531c-1.896-2.211-4.707-3.32-8.434-3.32
				c-3.793,0-6.785,1.563-8.973,4.688c-2.191,3.121-3.287,7.541-3.287,13.26c0,5.709,1.158,9.992,3.467,12.836
				c2.311,2.852,5.248,4.27,8.809,4.27c3.652,0,6.436-1.217,8.355-3.664c1.059-1.311,1.936-3.283,2.637-5.911h10.578
				c-0.912,5.558-3.244,10.072-6.994,13.557c-3.752,3.478-8.557,5.22-14.416,5.22c-7.25,0-12.949-2.354-17.1-7.055
				c-4.15-4.724-6.225-11.203-6.225-19.433C112.71,105.184,115.071,98.326,119.79,93.507z"/>
			<path fill="#04529D" d="M178.546,116.219c1.834-0.23,3.146-0.519,3.934-0.863c1.418-0.598,2.125-1.533,2.125-2.801
				c0-1.541-0.545-2.607-1.627-3.195c-1.088-0.59-2.682-0.882-4.785-0.882c-2.359,0-4.029,0.576-5.01,1.728
				c-0.703,0.852-1.168,2.004-1.402,3.458h-9.508c0.209-3.296,1.135-6.003,2.777-8.126c2.615-3.319,7.107-4.975,13.473-4.975
				c4.143,0,7.824,0.816,11.039,2.455c3.219,1.634,4.826,4.723,4.826,9.264v17.285c0,1.195,0.025,2.649,0.07,4.355
				c0.07,1.289,0.264,2.168,0.586,2.629c0.324,0.461,0.809,0.842,1.453,1.137v1.455H185.78c-0.301-0.764-0.508-1.477-0.623-2.146
				c-0.115-0.67-0.207-1.426-0.275-2.282c-1.367,1.476-2.943,2.729-4.729,3.772c-2.133,1.217-4.543,1.829-7.232,1.829
				c-3.432,0-6.266-0.973-8.502-2.924c-2.238-1.943-3.355-4.709-3.355-8.279c0-4.629,1.799-7.984,5.398-10.058
				c1.973-1.13,4.875-1.937,8.705-2.419L178.546,116.219z M184.569,120.82c-0.629,0.388-1.266,0.705-1.908,0.949
				c-0.643,0.238-1.525,0.469-2.646,0.678l-2.242,0.41c-2.104,0.367-3.613,0.82-4.529,1.354c-1.551,0.893-2.326,2.289-2.326,4.183
				c0,1.677,0.473,2.894,1.422,3.643c0.945,0.749,2.1,1.123,3.457,1.123c2.152,0,4.135-0.619,5.947-1.864
				c1.816-1.246,2.756-3.514,2.826-6.811V120.82z"/>
			<path fill="#04529D" d="M248.903,101.599c1.611,0.645,3.072,1.774,4.391,3.388c1.059,1.314,1.771,2.927,2.139,4.838
				c0.23,1.269,0.348,3.126,0.348,5.567l-0.068,23.751H245.62v-23.996c0-1.426-0.234-2.599-0.695-3.521
				c-0.875-1.754-2.488-2.629-4.838-2.629c-2.723,0-4.598,1.127-5.635,3.385c-0.531,1.203-0.799,2.643-0.799,4.32v22.441h-9.92
				v-22.441c0-2.231-0.23-3.859-0.691-4.867c-0.828-1.822-2.455-2.734-4.875-2.734c-2.811,0-4.701,0.912-5.666,2.734
				c-0.531,1.03-0.799,2.578-0.799,4.63v22.679h-9.988V101.53h9.574v5.497c1.221-1.963,2.373-3.355,3.459-4.184
				c1.908-1.476,4.389-2.213,7.432-2.213c2.879,0,5.209,0.633,6.982,1.9c1.43,1.174,2.514,2.686,3.25,4.528
				c1.293-2.214,2.893-3.837,4.807-4.874c2.027-1.037,4.283-1.555,6.775-1.555C245.651,100.631,247.29,100.951,248.903,101.599z"/>
			<path fill="#04529D" d="M278.571,116.219c1.836-0.23,3.146-0.519,3.938-0.863c1.416-0.598,2.123-1.533,2.123-2.801
				c0-1.541-0.541-2.607-1.629-3.195c-1.088-0.59-2.682-0.882-4.785-0.882c-2.357,0-4.027,0.576-5.01,1.728
				c-0.697,0.852-1.168,2.004-1.4,3.458H262.3c0.209-3.296,1.135-6.003,2.779-8.126c2.613-3.319,7.107-4.975,13.471-4.975
				c4.143,0,7.822,0.816,11.041,2.455c3.213,1.634,4.826,4.723,4.826,9.264v17.285c0,1.195,0.023,2.649,0.068,4.355
				c0.068,1.289,0.264,2.168,0.588,2.629s0.807,0.842,1.453,1.137v1.455h-10.719c-0.301-0.764-0.506-1.477-0.619-2.146
				c-0.115-0.67-0.209-1.426-0.283-2.282c-1.361,1.476-2.939,2.729-4.725,3.772c-2.135,1.217-4.543,1.829-7.232,1.829
				c-3.434,0-6.268-0.973-8.502-2.924c-2.24-1.943-3.355-4.709-3.355-8.279c0-4.629,1.799-7.984,5.398-10.058
				c1.975-1.13,4.875-1.937,8.705-2.419L278.571,116.219z M284.597,120.82c-0.633,0.388-1.268,0.705-1.906,0.949
				c-0.646,0.238-1.527,0.469-2.65,0.678l-2.238,0.41c-2.104,0.367-3.615,0.82-4.529,1.354c-1.555,0.893-2.332,2.289-2.332,4.183
				c0,1.677,0.475,2.894,1.424,3.643c0.947,0.749,2.1,1.123,3.457,1.123c2.152,0,4.135-0.619,5.953-1.864
				c1.811-1.246,2.75-3.514,2.822-6.811V120.82z"/>
			<path fill="#04529D" d="M324.425,114.974c-0.188-1.403-0.658-2.671-1.422-3.802c-1.107-1.521-2.832-2.28-5.162-2.28
				c-3.328,0-5.604,1.647-6.828,4.944c-0.648,1.75-0.971,4.068-0.971,6.962c0,2.765,0.322,4.981,0.971,6.659
				c1.18,3.132,3.398,4.701,6.652,4.701c2.311,0,3.951-0.619,4.924-1.864c0.969-1.245,1.559-2.858,1.764-4.846h10.063
				c-0.23,3.003-1.314,5.832-3.25,8.511c-3.096,4.305-7.672,6.457-13.74,6.457c-6.066,0-10.529-1.792-13.393-5.392
				c-2.861-3.593-4.291-8.251-4.291-13.981c0-6.465,1.58-11.492,4.74-15.088c3.16-3.598,7.521-5.393,13.084-5.393
				c4.729,0,8.596,1.059,11.604,3.178c3.014,2.121,4.795,5.868,5.35,11.233H324.425z"/>
			<path fill="#04529D" d="M367.079,101.667c1.898,0.81,3.447,2.044,4.67,3.704c1.029,1.408,1.658,2.855,1.889,4.341
				c0.23,1.489,0.342,3.915,0.342,7.284v22.146h-10.057v-22.945c0-2.03-0.342-3.672-1.029-4.917c-0.893-1.755-2.586-2.63-5.076-2.63
				c-2.584,0-4.551,0.871-5.889,2.615c-1.34,1.742-2.01,4.227-2.01,7.459v20.418h-9.848V88.358h9.848v17.974
				c1.426-2.188,3.074-3.715,4.943-4.578c1.867-0.864,3.838-1.297,5.898-1.297C363.081,100.457,365.19,100.861,367.079,101.667z"/>
			<path fill="#04529D" d="M413.188,134.535c-3.182,3.924-8.012,5.881-14.488,5.881s-11.303-1.957-14.482-5.881
				c-3.182-3.932-4.773-8.654-4.773-14.184c0-5.436,1.592-10.143,4.773-14.127c3.18-3.984,8.006-5.976,14.482-5.976
				s11.307,1.991,14.488,5.976c3.18,3.984,4.766,8.691,4.766,14.127C417.954,125.881,416.368,130.604,413.188,134.535z
				 M405.306,129.084c1.539-2.044,2.314-4.959,2.314-8.732s-0.775-6.682-2.314-8.719c-1.549-2.032-3.758-3.051-6.639-3.051
				c-2.879,0-5.102,1.019-6.656,3.051c-1.555,2.037-2.332,4.945-2.332,8.719s0.777,6.688,2.332,8.732
				c1.555,2.053,3.777,3.074,6.656,3.074C401.548,132.158,403.757,131.137,405.306,129.084z"/>
		</g>
	</g>
	<g>
		<path fill="#04529D" d="M0,172.685c0.507,0,0.761-0.173,0.761-0.525v-13.298c0-0.352-0.254-0.525-0.761-0.525v-0.532h4.861v0.532
			c-0.508,0-0.76,0.174-0.76,0.525v13.298c0,0.353,0.252,0.525,0.76,0.525v0.526H0V172.685z"/>
		<path fill="#04529D" d="M9.215,172.685c0.371,0,0.557-0.173,0.557-0.525v-13.298c0-0.352-0.186-0.525-0.557-0.525v-0.532h5.01
			v0.532c-0.157,0-0.234,0.094-0.234,0.288c0,0.159,0.194,0.433,0.586,0.821l8.406,8.732v-9.316c0-0.352-0.254-0.525-0.762-0.525
			v-0.532h4.424v0.532c-0.372,0-0.558,0.174-0.558,0.525v13.298c0,0.353,0.186,0.525,0.558,0.525v0.526h-4.746v-0.526
			c0.254,0,0.382-0.086,0.382-0.267c0-0.129-0.157-0.359-0.47-0.669l-8.934-9.315v9.726c0,0.353,0.225,0.525,0.672,0.525v0.526
			H9.215V172.685z"/>
		<path fill="#04529D" d="M32.309,168.379l0.294,0.145c0,0.18,0.04,0.339,0.116,0.468c0.136,0.237,0.406,0.468,0.807,0.691
			s0.859,0.425,1.377,0.604c0.517,0.174,1.059,0.316,1.625,0.418c0.568,0.107,1.075,0.166,1.523,0.166
			c0.331,0,0.762-0.022,1.289-0.072c0.527-0.051,1.043-0.151,1.553-0.31c0.508-0.159,0.947-0.367,1.318-0.642
			c0.37-0.28,0.557-0.633,0.557-1.087c0-0.453-0.172-0.776-0.513-0.993c-0.342-0.216-0.792-0.375-1.348-0.475
			c-0.556-0.094-1.192-0.159-1.904-0.188c-0.713-0.029-1.442-0.072-2.184-0.13s-1.469-0.158-2.181-0.296
			c-0.713-0.137-1.349-0.367-1.904-0.691c-0.557-0.316-1.007-0.755-1.347-1.316c-0.343-0.555-0.515-1.281-0.515-2.182
			c0-0.605,0.144-1.202,0.424-1.785c0.285-0.584,0.719-1.102,1.306-1.556c0.585-0.446,1.326-0.813,2.227-1.095
			c0.896-0.279,1.952-0.424,3.164-0.424c1.033,0,1.931,0.079,2.694,0.23c0.762,0.158,1.42,0.324,1.979,0.504
			c0.555,0.172,1.023,0.338,1.405,0.496c0.38,0.159,0.698,0.23,0.95,0.23c0.275,0,0.47-0.057,0.587-0.172l0.351,0.229l-2.021,3.665
			l-0.293-0.115c-0.039-0.273-0.115-0.504-0.232-0.678c-0.158-0.23-0.416-0.46-0.777-0.69c-0.361-0.224-0.787-0.418-1.273-0.598
			c-0.488-0.173-1.018-0.316-1.583-0.425c-0.567-0.107-1.132-0.158-1.698-0.158c-0.431,0-0.873,0.029-1.332,0.102
			c-0.459,0.071-0.875,0.172-1.246,0.309s-0.679,0.317-0.922,0.54c-0.244,0.224-0.367,0.505-0.367,0.835
			c0,0.468,0.172,0.821,0.514,1.059c0.34,0.23,0.79,0.41,1.346,0.525c0.559,0.115,1.191,0.194,1.904,0.23
			c0.713,0.043,1.44,0.086,2.184,0.151c0.741,0.058,1.469,0.159,2.182,0.303c0.713,0.151,1.348,0.382,1.904,0.706
			c0.556,0.323,1.006,0.756,1.348,1.303c0.343,0.547,0.513,1.26,0.513,2.138c0,1.015-0.268,1.843-0.806,2.491
			c-0.538,0.641-1.206,1.152-2.007,1.52c-0.802,0.374-1.665,0.625-2.592,0.748c-0.929,0.13-1.793,0.195-2.592,0.195
			c-1.114,0-2.047-0.065-2.8-0.195c-0.752-0.123-1.375-0.28-1.873-0.468c-0.498-0.187-0.895-0.353-1.188-0.497
			c-0.293-0.144-0.546-0.223-0.762-0.223c-0.137,0-0.263,0.079-0.38,0.237l-0.41-0.237L32.309,168.379z"/>
		<path fill="#04529D" d="M58.462,172.159c0,0.353,0.213,0.525,0.644,0.525v0.526h-4.511v-0.526c0.137,0,0.26-0.043,0.366-0.13
			c0.107-0.086,0.161-0.223,0.161-0.396v-11.656h-4.834c-0.175,0-0.346,0.044-0.512,0.145c-0.165,0.101-0.25,0.28-0.25,0.554h-0.525
			v-4.096h0.525c0,0.273,0.085,0.453,0.25,0.554c0.166,0.094,0.337,0.145,0.512,0.145h13.008c0.174,0,0.346-0.051,0.513-0.145
			c0.165-0.101,0.249-0.28,0.249-0.554h0.527v4.096h-0.527c0-0.273-0.084-0.453-0.249-0.554c-0.167-0.101-0.339-0.145-0.513-0.145
			h-4.834V172.159z"/>
		<path fill="#04529D" d="M67.745,172.685c0.508,0,0.762-0.173,0.762-0.525v-13.298c0-0.352-0.254-0.525-0.762-0.525v-0.532h4.863
			v0.532c-0.51,0-0.762,0.174-0.762,0.525v13.298c0,0.353,0.252,0.525,0.762,0.525v0.526h-4.863V172.685z"/>
		<path fill="#04529D" d="M85.229,172.159c0,0.353,0.214,0.525,0.645,0.525v0.526h-4.512v-0.526c0.138,0,0.26-0.043,0.365-0.13
			c0.109-0.086,0.162-0.223,0.162-0.396v-11.656h-4.834c-0.174,0-0.346,0.044-0.512,0.145c-0.165,0.101-0.25,0.28-0.25,0.554h-0.527
			v-4.096h0.527c0,0.273,0.085,0.453,0.25,0.554c0.166,0.094,0.338,0.145,0.512,0.145h13.008c0.176,0,0.346-0.051,0.512-0.145
			c0.167-0.101,0.25-0.28,0.25-0.554h0.527v4.096h-0.527c0-0.273-0.083-0.453-0.25-0.554c-0.166-0.101-0.336-0.145-0.512-0.145
			h-4.834V172.159z"/>
		<path fill="#04529D" d="M99.094,158.336c-0.431,0-0.645,0.174-0.645,0.525v8.784c0,1.231,0.396,2.081,1.187,2.534
			c0.791,0.461,1.949,0.691,3.472,0.691s2.68-0.23,3.47-0.691c0.793-0.453,1.188-1.303,1.188-2.534v-8.784
			c0-0.352-0.293-0.525-0.879-0.525v-0.532h4.686v0.532c-0.467,0-0.701,0.174-0.701,0.525v8.64c0,1.151-0.168,2.103-0.5,2.858
			c-0.332,0.749-0.828,1.354-1.492,1.8s-1.49,0.749-2.475,0.907c-0.986,0.158-2.125,0.238-3.413,0.238s-2.429-0.08-3.413-0.238
			c-0.986-0.158-1.813-0.461-2.477-0.907c-0.662-0.446-1.16-1.051-1.492-1.8c-0.332-0.756-0.498-1.707-0.498-2.858v-8.64
			c0-0.352-0.275-0.525-0.82-0.525v-0.532h4.804V158.336z"/>
		<path fill="#04529D" d="M131.872,171.102c-0.059,0-0.113,0-0.162-0.016c-0.049-0.006-0.102-0.014-0.16-0.014
			c-0.117,0-0.395,0.122-0.834,0.353c-0.439,0.237-0.998,0.497-1.67,0.792c-0.676,0.295-1.441,0.547-2.301,0.764
			c-0.859,0.216-1.758,0.324-2.695,0.324c-1.229,0-2.412-0.159-3.543-0.469c-1.135-0.316-2.135-0.799-3.002-1.454
			c-0.869-0.655-1.559-1.47-2.066-2.448c-0.508-0.972-0.762-2.116-0.762-3.427c0-1.288,0.254-2.427,0.762-3.412
			c0.508-0.987,1.197-1.808,2.066-2.47c0.867-0.67,1.867-1.166,3.002-1.498c1.131-0.331,2.314-0.496,3.543-0.496
			c0.998,0,1.9,0.079,2.711,0.23c0.811,0.158,1.518,0.324,2.125,0.504c0.604,0.172,1.082,0.338,1.434,0.496
			c0.354,0.159,0.566,0.23,0.645,0.23c0.098,0,0.18-0.051,0.248-0.145c0.068-0.1,0.123-0.18,0.162-0.229l0.439,0.346l-2.285,3.55
			l-0.293-0.21c0-0.058-0.006-0.114-0.014-0.172c-0.012-0.065-0.025-0.13-0.045-0.21c-0.039-0.215-0.234-0.432-0.586-0.661
			c-0.352-0.224-0.785-0.417-1.303-0.599c-0.518-0.172-1.064-0.324-1.641-0.438c-0.576-0.115-1.107-0.173-1.598-0.173
			c-0.818,0-1.605,0.115-2.357,0.353c-0.75,0.23-1.406,0.577-1.961,1.022c-0.557,0.447-1.002,1.001-1.334,1.656
			c-0.332,0.654-0.5,1.404-0.5,2.238c0,0.844,0.168,1.592,0.5,2.24c0.332,0.654,0.777,1.209,1.334,1.655
			c0.555,0.454,1.211,0.792,1.961,1.029c0.752,0.23,1.539,0.353,2.357,0.353c0.625,0,1.279-0.079,1.965-0.223
			c0.684-0.145,1.309-0.332,1.873-0.555c0.566-0.223,1.041-0.482,1.42-0.763c0.383-0.28,0.572-0.555,0.572-0.807
			c0-0.137-0.039-0.252-0.117-0.353l0.41-0.23l1.934,3.104L131.872,171.102z"/>
		<path fill="#04529D" d="M135.526,172.685c0.51,0,0.764-0.173,0.764-0.525v-13.298c0-0.352-0.254-0.525-0.764-0.525v-0.532h4.863
			v0.532c-0.508,0-0.762,0.174-0.762,0.525v13.298c0,0.353,0.254,0.525,0.762,0.525v0.526h-4.863V172.685z"/>
		<path fill="#04529D" d="M153.368,157.631c1.076,0,2.17,0.158,3.281,0.482c1.115,0.324,2.131,0.807,3.047,1.446
			c0.918,0.648,1.67,1.462,2.256,2.448c0.588,0.986,0.879,2.152,0.879,3.499c0,1.354-0.291,2.521-0.879,3.507
			c-0.586,0.986-1.338,1.799-2.256,2.439c-0.916,0.648-1.932,1.117-3.047,1.412c-1.111,0.287-2.205,0.439-3.281,0.439
			c-1.074,0-2.166-0.152-3.277-0.439c-1.115-0.295-2.131-0.764-3.047-1.412c-0.92-0.641-1.672-1.453-2.258-2.439
			s-0.877-2.153-0.877-3.507c0-1.347,0.291-2.513,0.877-3.499s1.338-1.8,2.258-2.448c0.916-0.64,1.932-1.122,3.047-1.446
			C151.202,157.789,152.294,157.631,153.368,157.631z M153.368,160.323c-0.74,0-1.482,0.114-2.225,0.353
			c-0.742,0.237-1.41,0.568-2.006,1.016c-0.598,0.432-1.078,0.979-1.451,1.62c-0.371,0.647-0.557,1.374-0.557,2.195
			c0,0.82,0.186,1.556,0.557,2.196c0.373,0.647,0.854,1.188,1.451,1.627c0.596,0.439,1.264,0.777,2.006,1.015
			c0.742,0.23,1.484,0.353,2.225,0.353c0.744,0,1.486-0.122,2.227-0.353c0.744-0.237,1.412-0.575,2.01-1.015
			c0.594-0.439,1.078-0.979,1.449-1.627c0.369-0.641,0.555-1.376,0.555-2.196c0-0.821-0.186-1.548-0.555-2.195
			c-0.371-0.642-0.855-1.188-1.449-1.62c-0.598-0.447-1.266-0.778-2.01-1.016C154.854,160.438,154.112,160.323,153.368,160.323z
			 M153.634,156.838h-2.461l2.664-4.218h3.957L153.634,156.838z"/>
		<path fill="#04529D" d="M166.587,172.685c0.371,0,0.559-0.173,0.559-0.525v-13.298c0-0.352-0.188-0.525-0.559-0.525v-0.532h5.008
			v0.532c-0.154,0-0.232,0.094-0.232,0.288c0,0.159,0.195,0.433,0.586,0.821l8.406,8.732v-9.316c0-0.352-0.254-0.525-0.76-0.525
			v-0.532h4.422v0.532c-0.371,0-0.557,0.174-0.557,0.525v13.298c0,0.353,0.186,0.525,0.557,0.525v0.526h-4.746v-0.526
			c0.254,0,0.383-0.086,0.383-0.267c0-0.129-0.158-0.359-0.471-0.669l-8.934-9.315v9.726c0,0.353,0.225,0.525,0.674,0.525v0.526
			h-4.336V172.685z"/>
		<path fill="#04529D" d="M202.384,158.336c-0.432,0-0.645,0.174-0.645,0.525v8.784c0,1.231,0.393,2.081,1.184,2.534
			c0.793,0.461,1.949,0.691,3.473,0.691c1.521,0,2.68-0.23,3.471-0.691c0.793-0.453,1.188-1.303,1.188-2.534v-8.784
			c0-0.352-0.295-0.525-0.881-0.525v-0.532h4.691v0.532c-0.469,0-0.707,0.174-0.707,0.525v8.64c0,1.151-0.166,2.103-0.496,2.858
			c-0.332,0.749-0.832,1.354-1.494,1.8c-0.666,0.446-1.49,0.749-2.477,0.907c-0.984,0.158-2.123,0.238-3.41,0.238
			c-1.291,0-2.43-0.08-3.416-0.238s-1.809-0.461-2.475-0.907c-0.664-0.446-1.16-1.051-1.492-1.8
			c-0.334-0.756-0.498-1.707-0.498-2.858v-8.64c0-0.352-0.275-0.525-0.82-0.525v-0.532h4.805V158.336z"/>
		<path fill="#04529D" d="M218.833,172.685c0.371,0,0.555-0.173,0.555-0.525v-13.298c0-0.352-0.184-0.525-0.555-0.525v-0.532h5.008
			v0.532c-0.154,0-0.23,0.094-0.23,0.288c0,0.159,0.195,0.433,0.584,0.821l8.408,8.732v-9.316c0-0.352-0.256-0.525-0.764-0.525
			v-0.532h4.426v0.532c-0.371,0-0.559,0.174-0.559,0.525v13.298c0,0.353,0.188,0.525,0.559,0.525v0.526h-4.748v-0.526
			c0.252,0,0.381-0.086,0.381-0.267c0-0.129-0.158-0.359-0.469-0.669l-8.934-9.315v9.726c0,0.353,0.223,0.525,0.672,0.525v0.526
			h-4.334V172.685z"/>
		<path fill="#04529D" d="M240.616,172.685c0.508,0,0.76-0.173,0.76-0.525v-13.298c0-0.352-0.252-0.525-0.76-0.525v-0.532h4.863
			v0.532c-0.508,0-0.764,0.174-0.764,0.525v13.298c0,0.353,0.256,0.525,0.764,0.525v0.526h-4.863V172.685z"/>
		<path fill="#04529D" d="M266.62,158.336c-0.393,0-0.678,0.137-0.85,0.418c-0.176,0.287-0.307,0.518-0.383,0.691l-5.182,11.396
			c-0.182,0.389-0.324,0.699-0.443,0.936c-0.119,0.238-0.176,0.404-0.176,0.497c0,0.101,0.025,0.181,0.074,0.237
			c0.049,0.059,0.113,0.115,0.191,0.173v0.526h-4.482v-0.526c0.178-0.079,0.264-0.216,0.264-0.41c0-0.093-0.072-0.295-0.219-0.597
			c-0.148-0.303-0.328-0.678-0.545-1.131l-5.27-11.455c-0.1-0.216-0.236-0.367-0.41-0.468c-0.176-0.094-0.432-0.194-0.764-0.288
			v-0.532h5.242v0.532c-0.133,0-0.268,0.029-0.393,0.102c-0.127,0.064-0.191,0.201-0.191,0.396c0,0.208,0.08,0.489,0.248,0.813
			c0.17,0.338,0.367,0.748,0.602,1.238l3.752,8.049l3.66-7.934c0.234-0.512,0.453-0.965,0.658-1.361
			c0.201-0.402,0.311-0.684,0.311-0.842c0-0.31-0.277-0.461-0.82-0.461v-0.532h5.125V158.336z"/>
		<path fill="#04529D" d="M284.063,160.971c0-0.215-0.082-0.381-0.246-0.489c-0.166-0.101-0.459-0.158-0.865-0.158h-9.492v3.636
			h5.74c0.393,0,0.695-0.058,0.912-0.166c0.213-0.107,0.32-0.381,0.32-0.834h0.529v4.57h-0.529c0-0.445-0.107-0.734-0.32-0.863
			c-0.217-0.129-0.52-0.188-0.912-0.188h-5.74v4.039h9.783c0.295,0,0.533-0.064,0.721-0.201c0.184-0.137,0.277-0.324,0.277-0.562
			h0.527v4.017h-0.527c0-0.295-0.094-0.461-0.277-0.496c-0.188-0.044-0.426-0.064-0.721-0.064h-13.65v-0.526
			c0.137,0,0.26-0.043,0.367-0.13c0.107-0.086,0.162-0.223,0.162-0.396v-13.298c0-0.18-0.055-0.309-0.162-0.396
			s-0.23-0.13-0.367-0.13v-0.532h13.359c0.406,0,0.699-0.065,0.865-0.188c0.164-0.13,0.246-0.296,0.246-0.511h0.527v3.865H284.063z"
			/>
		<path fill="#04529D" d="M298.45,157.804c0.934,0,1.785,0.086,2.547,0.251c0.76,0.166,1.416,0.433,1.959,0.793
			c0.547,0.359,0.973,0.828,1.264,1.404c0.291,0.575,0.436,1.281,0.436,2.123c0,1.289-0.379,2.275-1.137,2.959
			c-0.764,0.685-1.791,1.145-3.078,1.375l3.898,5.565c0.133,0.194,0.295,0.317,0.482,0.353c0.182,0.043,0.352,0.058,0.51,0.058
			v0.526h-5.479v-0.526c0.178,0,0.328-0.028,0.453-0.086c0.131-0.058,0.191-0.137,0.191-0.237c0-0.094-0.039-0.209-0.119-0.332
			c-0.074-0.129-0.193-0.303-0.348-0.518l-3.223-4.564h-4.191v5.212c0,0.173,0.066,0.31,0.191,0.396
			c0.127,0.087,0.355,0.13,0.689,0.13v0.526h-5.07v-0.526c0.568,0,0.85-0.173,0.85-0.525v-13.298c0-0.352-0.281-0.525-0.85-0.525
			v-0.532H298.45z M297.685,164.657c0.703,0,1.289-0.05,1.758-0.159c0.469-0.107,0.842-0.258,1.117-0.453
			c0.273-0.193,0.467-0.425,0.582-0.69c0.115-0.259,0.176-0.548,0.176-0.864c0-0.31-0.061-0.598-0.176-0.863
			c-0.115-0.267-0.309-0.49-0.582-0.684c-0.275-0.195-0.648-0.354-1.117-0.462c-0.469-0.101-1.055-0.158-1.758-0.158h-5.068v4.334
			H297.685z"/>
		<path fill="#04529D" d="M310.069,168.379l0.295,0.145c0,0.18,0.037,0.339,0.115,0.468c0.137,0.237,0.408,0.468,0.807,0.691
			c0.4,0.224,0.855,0.425,1.375,0.604c0.52,0.174,1.063,0.316,1.627,0.418c0.57,0.107,1.072,0.166,1.527,0.166
			c0.33,0,0.76-0.022,1.289-0.072c0.525-0.051,1.043-0.151,1.551-0.31c0.508-0.159,0.947-0.367,1.313-0.642
			c0.375-0.28,0.563-0.633,0.563-1.087c0-0.453-0.172-0.776-0.514-0.993c-0.342-0.216-0.789-0.375-1.348-0.475
			c-0.557-0.094-1.191-0.159-1.904-0.188c-0.713-0.029-1.439-0.072-2.18-0.13c-0.742-0.058-1.473-0.158-2.184-0.296
			c-0.715-0.137-1.348-0.367-1.906-0.691c-0.555-0.316-1.006-0.755-1.348-1.316c-0.342-0.555-0.512-1.281-0.512-2.182
			c0-0.605,0.141-1.202,0.426-1.785c0.281-0.584,0.717-1.102,1.303-1.556c0.584-0.446,1.326-0.813,2.225-1.095
			c0.9-0.279,1.951-0.424,3.164-0.424c1.037,0,1.934,0.079,2.697,0.23c0.764,0.158,1.418,0.324,1.977,0.504
			c0.557,0.172,1.025,0.338,1.406,0.496c0.381,0.159,0.699,0.23,0.951,0.23c0.273,0,0.469-0.057,0.588-0.172l0.348,0.229
			l-2.02,3.665l-0.291-0.115c-0.043-0.273-0.119-0.504-0.238-0.678c-0.154-0.23-0.414-0.46-0.773-0.69
			c-0.363-0.224-0.789-0.418-1.273-0.598c-0.49-0.173-1.016-0.316-1.582-0.425c-0.568-0.107-1.135-0.158-1.699-0.158
			c-0.432,0-0.877,0.029-1.33,0.102c-0.461,0.071-0.881,0.172-1.25,0.309c-0.371,0.137-0.678,0.317-0.922,0.54
			c-0.24,0.224-0.363,0.505-0.363,0.835c0,0.468,0.164,0.821,0.512,1.059c0.338,0.23,0.791,0.41,1.346,0.525
			c0.559,0.115,1.191,0.194,1.904,0.23c0.713,0.043,1.436,0.086,2.182,0.151c0.744,0.058,1.473,0.159,2.186,0.303
			c0.713,0.151,1.346,0.382,1.9,0.706c0.559,0.323,1.008,0.756,1.35,1.303s0.516,1.26,0.516,2.138c0,1.015-0.273,1.843-0.807,2.491
			c-0.541,0.641-1.211,1.152-2.01,1.52c-0.799,0.374-1.662,0.625-2.592,0.748c-0.928,0.13-1.791,0.195-2.592,0.195
			c-1.115,0-2.043-0.065-2.801-0.195c-0.748-0.123-1.375-0.28-1.871-0.468c-0.5-0.187-0.893-0.353-1.188-0.497
			c-0.293-0.144-0.547-0.223-0.764-0.223c-0.135,0-0.264,0.079-0.383,0.237l-0.406-0.237L310.069,168.379z"/>
		<path fill="#04529D" d="M327.659,172.685c0.506,0,0.762-0.173,0.762-0.525v-13.298c0-0.352-0.256-0.525-0.762-0.525v-0.532h4.863
			v0.532c-0.51,0-0.762,0.174-0.762,0.525v13.298c0,0.353,0.252,0.525,0.762,0.525v0.526h-4.863V172.685z"/>
		<path fill="#04529D" d="M345.144,172.159c0,0.353,0.211,0.525,0.643,0.525v0.526h-4.51v-0.526c0.137,0,0.26-0.043,0.367-0.13
			c0.104-0.086,0.162-0.223,0.162-0.396v-11.656h-4.838c-0.174,0-0.342,0.044-0.512,0.145c-0.166,0.101-0.246,0.28-0.246,0.554
			h-0.527v-4.096h0.527c0,0.273,0.08,0.453,0.246,0.554c0.17,0.094,0.338,0.145,0.512,0.145h13.01c0.176,0,0.346-0.051,0.512-0.145
			c0.164-0.101,0.25-0.28,0.25-0.554h0.525v4.096h-0.525c0-0.273-0.086-0.453-0.25-0.554c-0.166-0.101-0.336-0.145-0.512-0.145
			h-4.834V172.159z"/>
		<path fill="#04529D" d="M350.581,172.685c0.254-0.036,0.455-0.165,0.598-0.382c0.152-0.215,0.289-0.453,0.426-0.727l5.42-11.396
			c0.137-0.26,0.26-0.49,0.369-0.706c0.104-0.216,0.158-0.396,0.158-0.554c0-0.195-0.066-0.332-0.203-0.41
			c-0.137-0.08-0.287-0.137-0.443-0.174v-0.532h4.951v0.532c-0.137,0.037-0.271,0.086-0.41,0.158
			c-0.135,0.072-0.203,0.209-0.203,0.426c0,0.158,0.033,0.309,0.102,0.468c0.068,0.157,0.172,0.359,0.309,0.612l6.092,11.922
			c0.102,0.216,0.23,0.374,0.396,0.468c0.166,0.101,0.355,0.202,0.568,0.295v0.526h-5.156v-0.526c0.08,0,0.182-0.028,0.297-0.086
			s0.174-0.144,0.174-0.267c0-0.194-0.078-0.446-0.232-0.756l-1.115-2.174h-7.145l-1.055,2.08c-0.195,0.41-0.291,0.705-0.291,0.879
			c0,0.215,0.182,0.323,0.553,0.323v0.526h-4.158V172.685z M361.626,167.234l-2.463-5.443l-2.758,5.443H361.626z"/>
		<path fill="#04529D" d="M381.683,157.804c0.938,0,1.787,0.086,2.547,0.251c0.762,0.166,1.414,0.433,1.961,0.793
			c0.547,0.359,0.969,0.828,1.26,1.404c0.295,0.575,0.439,1.281,0.439,2.123c0,1.289-0.383,2.275-1.145,2.959
			c-0.756,0.685-1.781,1.145-3.074,1.375l3.898,5.565c0.137,0.194,0.299,0.317,0.479,0.353c0.188,0.043,0.359,0.058,0.518,0.058
			v0.526h-5.479v-0.526c0.174,0,0.324-0.028,0.455-0.086c0.125-0.058,0.188-0.137,0.188-0.237c0-0.094-0.037-0.209-0.117-0.332
			c-0.078-0.129-0.193-0.303-0.352-0.518l-3.219-4.564h-4.189v5.212c0,0.173,0.064,0.31,0.189,0.396
			c0.127,0.087,0.357,0.13,0.688,0.13v0.526h-5.068v-0.526c0.57,0,0.85-0.173,0.85-0.525v-13.298c0-0.352-0.279-0.525-0.85-0.525
			v-0.532H381.683z M380.921,164.657c0.701,0,1.287-0.05,1.756-0.159c0.469-0.107,0.838-0.258,1.111-0.453
			c0.273-0.193,0.473-0.425,0.588-0.69c0.115-0.259,0.176-0.548,0.176-0.864c0-0.31-0.061-0.598-0.176-0.863
			c-0.115-0.267-0.314-0.49-0.588-0.684c-0.273-0.195-0.643-0.354-1.111-0.462c-0.469-0.101-1.055-0.158-1.756-0.158h-5.068v4.334
			H380.921z"/>
		<path fill="#04529D" d="M392.036,172.685c0.512,0,0.764-0.173,0.764-0.525v-13.298c0-0.352-0.252-0.525-0.764-0.525v-0.532h4.863
			v0.532c-0.508,0-0.76,0.174-0.76,0.525v13.298c0,0.353,0.252,0.525,0.76,0.525v0.526h-4.863V172.685z"/>
		<path fill="#04529D" d="M399.825,172.685c0.252-0.036,0.455-0.165,0.598-0.382c0.148-0.215,0.289-0.453,0.426-0.727l5.422-11.396
			c0.137-0.26,0.26-0.49,0.367-0.706c0.104-0.216,0.158-0.396,0.158-0.554c0-0.195-0.068-0.332-0.207-0.41
			c-0.133-0.08-0.283-0.137-0.434-0.174v-0.532h4.945v0.532c-0.137,0.037-0.273,0.086-0.41,0.158s-0.201,0.209-0.201,0.426
			c0,0.158,0.033,0.309,0.102,0.468c0.068,0.157,0.168,0.359,0.309,0.612l6.09,11.922c0.098,0.216,0.232,0.374,0.396,0.468
			c0.166,0.101,0.355,0.202,0.568,0.295v0.526H412.8v-0.526c0.078,0,0.176-0.028,0.295-0.086c0.115-0.058,0.174-0.144,0.174-0.267
			c0-0.194-0.076-0.446-0.234-0.756l-1.113-2.174h-7.148l-1.051,2.08c-0.199,0.41-0.295,0.705-0.295,0.879
			c0,0.215,0.186,0.323,0.557,0.323v0.526h-4.158V172.685z M410.866,167.234l-2.459-5.443l-2.752,5.443H410.866z"/>
	</g>
	<g>
		<path fill="#04529D" d="M417.954,179.873c0,1-0.822,1.818-1.828,1.818H1.829c-1.007,0-1.829-0.818-1.829-1.818
			s0.822-1.816,1.829-1.816h414.297C417.132,178.057,417.954,178.873,417.954,179.873z"/>
	</g>
	<g>
		<path fill="#04529D" d="M14.878,189.738c1.46-1.213,3.117-1.82,4.971-1.82c2.48,0,4.121,0.814,4.922,2.441
			c0.439,0.913,0.583,1.83,0.43,2.75h-3.081c-0.046-0.707-0.189-1.24-0.43-1.601c-0.42-0.64-1.181-0.96-2.28-0.96
			c-1.12,0-2.101,0.451-2.94,1.355c-0.841,0.903-1.435,2.182-1.781,3.836c-0.354,1.653-0.276,2.893,0.23,3.715
			c0.507,0.824,1.287,1.236,2.341,1.236c1.08,0,1.98-0.354,2.7-1.061c0.394-0.381,0.773-0.95,1.141-1.711h3.051
			c-0.607,1.607-1.565,2.914-2.876,3.922c-1.311,1.006-2.822,1.51-4.536,1.51c-2.12,0-3.645-0.68-4.571-2.041
			c-0.92-1.366-1.127-3.24-0.62-5.621C12.094,193.116,13.204,191.133,14.878,189.738z"/>
		<path fill="#04529D" d="M30.976,196.311c0.546-0.067,0.943-0.15,1.189-0.25c0.44-0.174,0.7-0.443,0.78-0.811
			c0.094-0.447,0.004-0.756-0.27-0.926s-0.71-0.255-1.311-0.255c-0.674,0-1.187,0.167-1.54,0.501c-0.247,0.246-0.45,0.58-0.61,1
			h-2.751c0.267-0.954,0.7-1.737,1.301-2.352c0.96-0.959,2.356-1.439,4.19-1.439c1.193,0,2.204,0.236,3.031,0.71
			c0.826,0.474,1.1,1.366,0.82,2.681l-1.07,5.001c-0.074,0.347-0.154,0.767-0.24,1.261c-0.061,0.373-0.059,0.627,0.005,0.76
			s0.179,0.243,0.345,0.33l-0.08,0.42h-3.101c-0.04-0.221-0.057-0.427-0.05-0.62s0.026-0.413,0.061-0.66
			c-0.487,0.427-1.018,0.79-1.591,1.091c-0.693,0.353-1.427,0.529-2.2,0.529c-0.987,0-1.742-0.281-2.266-0.845
			s-0.676-1.362-0.455-2.396c0.286-1.34,1.01-2.311,2.17-2.91c0.634-0.327,1.518-0.561,2.651-0.701L30.976,196.311z M32.426,197.641
			c-0.2,0.113-0.4,0.205-0.601,0.275c-0.2,0.069-0.467,0.135-0.8,0.194l-0.66,0.12c-0.627,0.106-1.087,0.236-1.381,0.391
			c-0.493,0.26-0.797,0.663-0.91,1.209c-0.106,0.487-0.048,0.84,0.176,1.056c0.223,0.217,0.528,0.325,0.915,0.325
			c0.613,0,1.217-0.18,1.811-0.54c0.593-0.36,1.003-1.017,1.229-1.97L32.426,197.641z"/>
		<path fill="#04529D" d="M39.569,202.941h-2.85l3.131-14.743h2.85L39.569,202.941z"/>
		<path fill="#04529D" d="M44.601,192.039h2.891l-2.311,10.902H42.29L44.601,192.039z M47.772,190.738h-2.891l0.56-2.63h2.891
			L47.772,190.738z"/>
		<path fill="#04529D" d="M56.903,193.42l1.101-5.201h2.891l-3.12,14.723h-2.771l0.32-1.51c-0.547,0.646-1.111,1.116-1.695,1.41
			c-0.584,0.293-1.262,0.439-2.035,0.439c-1.273,0-2.236-0.515-2.886-1.545c-0.65-1.03-0.806-2.352-0.466-3.966
			c0.4-1.86,1.143-3.324,2.227-4.392c1.083-1.066,2.342-1.6,3.775-1.6c0.66,0,1.215,0.145,1.666,0.435
			C56.358,192.504,56.69,192.906,56.903,193.42z M56.083,197.65c0.281-1.334,0.146-2.287-0.399-2.861
			c-0.341-0.346-0.784-0.52-1.331-0.52c-0.833,0-1.512,0.314-2.035,0.945c-0.523,0.63-0.885,1.412-1.085,2.346
			c-0.214,1.007-0.187,1.813,0.08,2.415c0.267,0.604,0.804,0.905,1.61,0.905s1.485-0.3,2.035-0.9
			C55.509,199.381,55.884,198.604,56.083,197.65z"/>
		<path fill="#04529D" d="M66.075,196.311c0.546-0.067,0.943-0.15,1.189-0.25c0.44-0.174,0.7-0.443,0.78-0.811
			c0.093-0.447,0.003-0.756-0.271-0.926s-0.709-0.255-1.311-0.255c-0.673,0-1.186,0.167-1.539,0.501
			c-0.248,0.246-0.451,0.58-0.611,1h-2.75c0.267-0.954,0.7-1.737,1.301-2.352c0.96-0.959,2.356-1.439,4.19-1.439
			c1.193,0,2.204,0.236,3.03,0.71c0.827,0.474,1.101,1.366,0.82,2.681l-1.07,5.001c-0.073,0.347-0.153,0.767-0.24,1.261
			c-0.06,0.373-0.059,0.627,0.006,0.76c0.063,0.133,0.178,0.243,0.345,0.33l-0.08,0.42h-3.101c-0.04-0.221-0.057-0.427-0.05-0.62
			s0.026-0.413,0.06-0.66c-0.486,0.427-1.017,0.79-1.59,1.091c-0.693,0.353-1.428,0.529-2.201,0.529
			c-0.986,0-1.742-0.281-2.266-0.845s-0.675-1.362-0.455-2.396c0.287-1.34,1.011-2.311,2.171-2.91
			c0.634-0.327,1.517-0.561,2.651-0.701L66.075,196.311z M67.524,197.641c-0.199,0.113-0.4,0.205-0.6,0.275
			c-0.2,0.069-0.467,0.135-0.801,0.194l-0.66,0.12c-0.627,0.106-1.086,0.236-1.38,0.391c-0.493,0.26-0.797,0.663-0.91,1.209
			c-0.106,0.487-0.048,0.84,0.175,1.056c0.224,0.217,0.529,0.325,0.916,0.325c0.613,0,1.217-0.18,1.811-0.54
			c0.593-0.36,1.003-1.017,1.229-1.97L67.524,197.641z"/>
		<path fill="#04529D" d="M80.812,193.42l1.1-5.201h2.891l-3.12,14.723h-2.771l0.32-1.51c-0.547,0.646-1.112,1.116-1.695,1.41
			c-0.584,0.293-1.262,0.439-2.035,0.439c-1.274,0-2.236-0.515-2.887-1.545s-0.805-2.352-0.465-3.966
			c0.4-1.86,1.143-3.324,2.226-4.392c1.083-1.066,2.343-1.6,3.776-1.6c0.66,0,1.215,0.145,1.665,0.435S80.599,192.906,80.812,193.42
			z M79.991,197.65c0.28-1.334,0.146-2.287-0.4-2.861c-0.34-0.346-0.783-0.52-1.33-0.52c-0.834,0-1.512,0.314-2.035,0.945
			c-0.523,0.63-0.885,1.412-1.086,2.346c-0.213,1.007-0.186,1.813,0.08,2.415c0.268,0.604,0.805,0.905,1.611,0.905
			s1.484-0.3,2.035-0.9C79.416,199.381,79.791,198.604,79.991,197.65z"/>
		<path fill="#04529D" d="M83.646,205.313c0.606-0.16,1.085-0.428,1.436-0.801s0.618-0.896,0.806-1.57h-1.73l0.63-2.98h3.081
			l-0.551,2.58c-0.094,0.453-0.254,0.928-0.48,1.42c-0.227,0.494-0.539,0.921-0.939,1.281c-0.44,0.387-0.919,0.678-1.436,0.875
			c-0.518,0.196-0.865,0.295-1.045,0.295L83.646,205.313z"/>
		<path fill="#04529D" d="M106.162,193.869c0.293,0.646,0.409,1.397,0.351,2.251c-0.027,0.5-0.147,1.22-0.361,2.16H98.69
			c-0.193,1.094-0.014,1.86,0.54,2.301c0.333,0.273,0.776,0.41,1.33,0.41c0.587,0,1.101-0.167,1.54-0.501
			c0.234-0.18,0.464-0.43,0.69-0.75h2.911c-0.214,0.647-0.69,1.305-1.431,1.971c-1.16,1.061-2.581,1.59-4.261,1.59
			c-1.387,0-2.516-0.445-3.386-1.34c-0.87-0.893-1.093-2.347-0.665-4.361c0.4-1.887,1.186-3.334,2.355-4.34
			c1.17-1.008,2.519-1.511,4.046-1.511c0.907,0,1.688,0.17,2.345,0.511C105.363,192.6,105.849,193.137,106.162,193.869z
			 M99.161,196.4h4.43c0.113-0.754,0.006-1.326-0.324-1.716s-0.799-0.585-1.406-0.585c-0.66,0-1.215,0.207-1.664,0.62
			C99.745,195.133,99.4,195.693,99.161,196.4z"/>
		<path fill="#04529D" d="M105.623,202.941l4.89-5.521l-2.42-5.361h3.49l1.15,3.161l2.451-3.161h3.391l-4.711,5.312l2.541,5.571
			h-3.551l-1.191-3.271l-2.58,3.271H105.623z"/>
		<path fill="#04529D" d="M125.583,195.949c0.033-0.406-0.025-0.773-0.18-1.1c-0.227-0.439-0.676-0.66-1.35-0.66
			c-0.961,0-1.717,0.477-2.271,1.43c-0.293,0.508-0.529,1.182-0.709,2.021c-0.168,0.8-0.211,1.443-0.131,1.93
			c0.146,0.907,0.689,1.361,1.631,1.361c0.666,0,1.178-0.181,1.535-0.541c0.355-0.359,0.625-0.826,0.805-1.4h2.91
			c-0.246,0.867-0.732,1.688-1.459,2.461c-1.16,1.247-2.617,1.87-4.371,1.87s-2.934-0.521-3.537-1.56
			c-0.604-1.041-0.729-2.391-0.375-4.051c0.395-1.875,1.16-3.332,2.297-4.371c1.137-1.041,2.508-1.561,4.115-1.561
			c1.367,0,2.42,0.307,3.16,0.92s1.023,1.697,0.852,3.25H125.583z"/>
		<path fill="#04529D" d="M139.562,193.869c0.293,0.646,0.41,1.397,0.35,2.251c-0.027,0.5-0.146,1.22-0.359,2.16h-7.463
			c-0.193,1.094-0.014,1.86,0.541,2.301c0.334,0.273,0.777,0.41,1.33,0.41c0.586,0,1.1-0.167,1.541-0.501
			c0.232-0.18,0.463-0.43,0.689-0.75h2.91c-0.213,0.647-0.689,1.305-1.43,1.971c-1.16,1.061-2.58,1.59-4.262,1.59
			c-1.387,0-2.516-0.445-3.385-1.34c-0.871-0.893-1.092-2.347-0.666-4.361c0.4-1.887,1.186-3.334,2.355-4.34
			c1.17-1.008,2.52-1.511,4.047-1.511c0.906,0,1.688,0.17,2.346,0.511C138.763,192.6,139.247,193.137,139.562,193.869z
			 M132.56,196.4h4.432c0.113-0.754,0.004-1.326-0.326-1.716s-0.799-0.585-1.404-0.585c-0.66,0-1.217,0.207-1.666,0.62
			S132.8,195.693,132.56,196.4z"/>
		<path fill="#04529D" d="M143.354,202.941h-2.85l3.131-14.743h2.85L143.354,202.941z"/>
		<path fill="#04529D" d="M156.603,193.869c0.293,0.646,0.41,1.397,0.35,2.251c-0.025,0.5-0.146,1.22-0.359,2.16h-7.461
			c-0.193,1.094-0.014,1.86,0.539,2.301c0.334,0.273,0.777,0.41,1.33,0.41c0.588,0,1.102-0.167,1.541-0.501
			c0.232-0.18,0.463-0.43,0.689-0.75h2.91c-0.213,0.647-0.689,1.305-1.43,1.971c-1.16,1.061-2.58,1.59-4.26,1.59
			c-1.389,0-2.518-0.445-3.387-1.34c-0.871-0.893-1.092-2.347-0.666-4.361c0.4-1.887,1.186-3.334,2.357-4.34
			c1.17-1.008,2.518-1.511,4.045-1.511c0.906,0,1.689,0.17,2.346,0.511C155.804,192.6,156.29,193.137,156.603,193.869z
			 M149.601,196.4h4.432c0.113-0.754,0.004-1.326-0.326-1.716s-0.797-0.585-1.404-0.585c-0.66,0-1.215,0.207-1.666,0.62
			C150.187,195.133,149.841,195.693,149.601,196.4z"/>
		<path fill="#04529D" d="M168.948,195.6l-1.561,7.342h-2.92l1.4-6.631c0.127-0.574,0.143-1.014,0.051-1.32
			c-0.16-0.561-0.635-0.841-1.422-0.841c-0.967,0-1.717,0.41-2.25,1.23c-0.279,0.434-0.49,0.987-0.629,1.66l-1.252,5.901h-2.84
			l2.311-10.883h2.75l-0.34,1.591c0.486-0.56,0.92-0.964,1.301-1.21c0.68-0.44,1.471-0.66,2.371-0.66
			c1.127,0,1.984,0.295,2.574,0.885S169.235,194.232,168.948,195.6z"/>
		<path fill="#04529D" d="M177.915,195.949c0.033-0.406-0.027-0.773-0.18-1.1c-0.229-0.439-0.678-0.66-1.352-0.66
			c-0.959,0-1.717,0.477-2.27,1.43c-0.295,0.508-0.531,1.182-0.711,2.021c-0.166,0.8-0.209,1.443-0.129,1.93
			c0.146,0.907,0.689,1.361,1.629,1.361c0.668,0,1.18-0.181,1.535-0.541c0.357-0.359,0.625-0.826,0.807-1.4h2.91
			c-0.246,0.867-0.734,1.688-1.461,2.461c-1.16,1.247-2.617,1.87-4.371,1.87s-2.932-0.521-3.535-1.56
			c-0.604-1.041-0.729-2.391-0.375-4.051c0.393-1.875,1.158-3.332,2.295-4.371c1.137-1.041,2.51-1.561,4.117-1.561
			c1.365,0,2.42,0.307,3.16,0.92s1.023,1.697,0.85,3.25H177.915z"/>
		<path fill="#04529D" d="M183.61,192.039h2.891l-2.311,10.902H181.3L183.61,192.039z M186.78,190.738h-2.889l0.559-2.63h2.891
			L186.78,190.738z"/>
		<path fill="#04529D" d="M192.589,196.311c0.547-0.067,0.943-0.15,1.189-0.25c0.441-0.174,0.701-0.443,0.781-0.811
			c0.094-0.447,0.004-0.756-0.27-0.926s-0.711-0.255-1.311-0.255c-0.674,0-1.188,0.167-1.541,0.501c-0.246,0.246-0.449,0.58-0.609,1
			h-2.752c0.268-0.954,0.701-1.737,1.301-2.352c0.961-0.959,2.357-1.439,4.191-1.439c1.193,0,2.203,0.236,3.031,0.71
			c0.826,0.474,1.1,1.366,0.82,2.681l-1.07,5.001c-0.074,0.347-0.154,0.767-0.24,1.261c-0.061,0.373-0.059,0.627,0.004,0.76
			c0.064,0.133,0.18,0.243,0.346,0.33l-0.08,0.42h-3.102c-0.039-0.221-0.057-0.427-0.049-0.62c0.006-0.193,0.025-0.413,0.061-0.66
			c-0.488,0.427-1.018,0.79-1.592,1.091c-0.693,0.353-1.426,0.529-2.199,0.529c-0.988,0-1.742-0.281-2.266-0.845
			s-0.676-1.362-0.455-2.396c0.285-1.34,1.01-2.311,2.17-2.91c0.633-0.327,1.518-0.561,2.65-0.701L192.589,196.311z M194.04,197.641
			c-0.201,0.113-0.4,0.205-0.602,0.275c-0.199,0.069-0.467,0.135-0.799,0.194l-0.66,0.12c-0.627,0.106-1.088,0.236-1.381,0.391
			c-0.494,0.26-0.797,0.663-0.91,1.209c-0.107,0.487-0.049,0.84,0.176,1.056c0.223,0.217,0.527,0.325,0.914,0.325
			c0.613,0,1.217-0.18,1.811-0.54s1.004-1.017,1.23-1.97L194.04,197.641z"/>
		<path fill="#04529D" d="M203.981,205.031l0.359,0.021c0.273,0.013,0.541,0.003,0.801-0.03s0.49-0.109,0.689-0.229
			c0.193-0.114,0.4-0.351,0.621-0.71c0.219-0.36,0.322-0.58,0.311-0.66l-1.582-11.383h3.172l0.67,8.041l3.961-8.041h3.031
			l-6.021,10.723c-1.16,2.066-2.002,3.349-2.525,3.846c-0.523,0.496-1.416,0.745-2.676,0.745c-0.254,0-0.457-0.002-0.611-0.005
			c-0.152-0.004-0.379-0.016-0.68-0.035L203.981,205.031z"/>
		<path fill="#04529D" d="M229.067,195.949c0.033-0.406-0.027-0.773-0.18-1.1c-0.229-0.439-0.678-0.66-1.352-0.66
			c-0.959,0-1.717,0.477-2.27,1.43c-0.295,0.508-0.531,1.182-0.711,2.021c-0.166,0.8-0.209,1.443-0.129,1.93
			c0.146,0.907,0.689,1.361,1.629,1.361c0.668,0,1.18-0.181,1.535-0.541c0.357-0.359,0.625-0.826,0.807-1.4h2.91
			c-0.246,0.867-0.734,1.688-1.461,2.461c-1.16,1.247-2.617,1.87-4.371,1.87s-2.932-0.521-3.535-1.56
			c-0.604-1.041-0.729-2.391-0.375-4.051c0.393-1.875,1.158-3.332,2.295-4.371c1.137-1.041,2.51-1.561,4.117-1.561
			c1.365,0,2.42,0.307,3.16,0.92s1.023,1.697,0.85,3.25H229.067z"/>
		<path fill="#04529D" d="M237.237,203.321c-1.873,0-3.148-0.568-3.824-1.705c-0.678-1.137-0.846-2.506-0.506-4.106
			c0.334-1.573,1.084-2.937,2.25-4.09c1.168-1.154,2.688-1.73,4.563-1.73c1.873,0,3.146,0.576,3.82,1.73
			c0.674,1.153,0.844,2.517,0.51,4.09c-0.34,1.601-1.092,2.97-2.256,4.106S239.112,203.321,237.237,203.321z M241.06,197.51
			c0.232-1.094,0.188-1.936-0.135-2.525c-0.324-0.59-0.902-0.885-1.736-0.885s-1.537,0.295-2.109,0.885
			c-0.574,0.59-0.979,1.432-1.211,2.525c-0.234,1.094-0.189,1.938,0.135,2.531s0.902,0.891,1.736,0.891
			c0.832,0,1.535-0.297,2.109-0.891S240.825,198.604,241.06,197.51z"/>
		<path fill="#04529D" d="M261.833,193.059c0.221,0.381,0.326,0.848,0.32,1.4c-0.014,0.367-0.094,0.904-0.24,1.611l-1.48,6.871
			h-2.92l1.471-6.941c0.086-0.414,0.094-0.754,0.02-1.021c-0.146-0.507-0.561-0.76-1.24-0.76c-0.787,0-1.4,0.327-1.84,0.979
			c-0.227,0.348-0.395,0.764-0.5,1.251l-1.371,6.491h-2.871l1.371-6.491c0.141-0.647,0.174-1.117,0.1-1.411
			c-0.127-0.525-0.539-0.789-1.24-0.789c-0.814,0-1.416,0.264-1.811,0.789c-0.213,0.301-0.383,0.748-0.51,1.341l-1.391,6.562h-2.891
			l2.311-10.883h2.771l-0.34,1.591c0.473-0.567,0.893-0.97,1.26-1.21c0.641-0.427,1.4-0.641,2.279-0.641
			c0.834,0,1.471,0.184,1.912,0.551c0.34,0.34,0.559,0.776,0.66,1.31c0.506-0.64,1.068-1.11,1.689-1.41
			c0.646-0.3,1.33-0.45,2.051-0.45c0.48,0,0.934,0.094,1.359,0.28C261.19,192.266,261.546,192.593,261.833,193.059z"/>
		<path fill="#04529D" d="M274.644,197.35c-0.408,1.921-1.15,3.385-2.227,4.392s-2.295,1.511-3.656,1.511
			c-0.865,0-1.539-0.217-2.02-0.65c-0.268-0.24-0.5-0.59-0.701-1.051l-1.209,5.682h-2.82l3.23-15.193h2.73l-0.34,1.61
			c0.406-0.474,0.813-0.847,1.219-1.12c0.734-0.486,1.537-0.73,2.412-0.73c1.273,0,2.252,0.471,2.936,1.41
			C274.882,194.149,275.03,195.529,274.644,197.35z M269.911,194.289c-1.033,0-1.846,0.49-2.439,1.471
			c-0.307,0.52-0.547,1.18-0.721,1.98c-0.268,1.268-0.119,2.157,0.439,2.67c0.34,0.301,0.783,0.451,1.33,0.451
			c0.795,0,1.465-0.307,2.012-0.92c0.547-0.614,0.926-1.432,1.141-2.451c0.18-0.84,0.146-1.584-0.102-2.23
			C271.325,194.613,270.772,194.289,269.911,194.289z"/>
		<path fill="#04529D" d="M284.128,191.799l-0.621,2.921c-0.174-0.021-0.33-0.033-0.471-0.04c-0.139-0.007-0.252-0.01-0.34-0.01
			c-1.146,0-1.996,0.373-2.551,1.12c-0.307,0.42-0.553,1.067-0.74,1.94l-1.1,5.211h-2.871l2.311-10.902h2.721l-0.4,1.9
			c0.594-0.727,1.082-1.224,1.461-1.49c0.633-0.447,1.377-0.67,2.23-0.67c0.053,0,0.098,0.002,0.135,0.005
			S284.007,191.793,284.128,191.799z"/>
		<path fill="#04529D" d="M287.937,203.321c-1.873,0-3.148-0.568-3.826-1.705c-0.676-1.137-0.844-2.506-0.504-4.106
			c0.332-1.573,1.084-2.937,2.25-4.09c1.166-1.154,2.688-1.73,4.561-1.73c1.875,0,3.148,0.576,3.822,1.73
			c0.672,1.153,0.842,2.517,0.51,4.09c-0.34,1.601-1.092,2.97-2.256,4.106S289.812,203.321,287.937,203.321z M291.759,197.51
			c0.232-1.094,0.188-1.936-0.137-2.525c-0.322-0.59-0.9-0.885-1.734-0.885s-1.537,0.295-2.111,0.885
			c-0.572,0.59-0.977,1.432-1.209,2.525c-0.234,1.094-0.189,1.938,0.135,2.531c0.322,0.594,0.9,0.891,1.734,0.891
			s1.537-0.297,2.111-0.891C291.12,199.447,291.524,198.604,291.759,197.51z"/>
		<path fill="#04529D" d="M312.532,193.059c0.221,0.381,0.326,0.848,0.32,1.4c-0.014,0.367-0.094,0.904-0.24,1.611l-1.48,6.871
			h-2.92l1.469-6.941c0.088-0.414,0.094-0.754,0.021-1.021c-0.146-0.507-0.561-0.76-1.24-0.76c-0.787,0-1.4,0.327-1.842,0.979
			c-0.227,0.348-0.393,0.764-0.5,1.251l-1.369,6.491h-2.871l1.371-6.491c0.139-0.647,0.172-1.117,0.1-1.411
			c-0.127-0.525-0.541-0.789-1.24-0.789c-0.814,0-1.418,0.264-1.811,0.789c-0.213,0.301-0.383,0.748-0.51,1.341l-1.391,6.562h-2.891
			l2.311-10.883h2.77l-0.34,1.591c0.475-0.567,0.895-0.97,1.262-1.21c0.639-0.427,1.398-0.641,2.279-0.641
			c0.834,0,1.471,0.184,1.91,0.551c0.34,0.34,0.561,0.776,0.66,1.31c0.508-0.64,1.07-1.11,1.691-1.41
			c0.646-0.3,1.33-0.45,2.051-0.45c0.479,0,0.934,0.094,1.359,0.28S312.245,192.593,312.532,193.059z"/>
		<path fill="#04529D" d="M316.013,192.039h2.891l-2.311,10.902h-2.891L316.013,192.039z M319.183,190.738h-2.891l0.561-2.63h2.891
			L319.183,190.738z"/>
		<path fill="#04529D" d="M322.167,199.461c-0.047,0.506,0.01,0.867,0.17,1.08c0.266,0.38,0.877,0.57,1.83,0.57
			c0.561,0,1.023-0.084,1.391-0.25c0.365-0.167,0.586-0.417,0.66-0.75c0.066-0.32-0.018-0.564-0.25-0.73
			c-0.234-0.167-1.164-0.453-2.791-0.86c-1.168-0.307-1.953-0.69-2.361-1.15c-0.412-0.453-0.525-1.106-0.34-1.96
			c0.213-1.008,0.793-1.873,1.736-2.596c0.943-0.724,2.131-1.086,3.564-1.086c1.361,0,2.412,0.272,3.152,0.815
			c0.74,0.544,1.033,1.482,0.879,2.815h-2.85c0.033-0.366-0.01-0.656-0.131-0.869c-0.232-0.387-0.727-0.58-1.48-0.58
			c-0.619,0-1.082,0.096-1.385,0.289s-0.482,0.42-0.535,0.681c-0.074,0.327,0.016,0.563,0.27,0.71
			c0.248,0.153,1.182,0.417,2.801,0.79c1.074,0.267,1.838,0.671,2.291,1.21c0.447,0.547,0.584,1.23,0.41,2.051
			c-0.234,1.08-0.824,1.963-1.771,2.646c-0.945,0.684-2.26,1.025-3.939,1.025c-1.715,0-2.902-0.362-3.566-1.085
			c-0.664-0.724-0.879-1.646-0.645-2.766H322.167z"/>
		<path fill="#04529D" d="M335.331,203.321c-1.873,0-3.148-0.568-3.826-1.705c-0.676-1.137-0.844-2.506-0.504-4.106
			c0.332-1.573,1.084-2.937,2.25-4.09c1.166-1.154,2.688-1.73,4.561-1.73c1.875,0,3.148,0.576,3.822,1.73
			c0.672,1.153,0.842,2.517,0.51,4.09c-0.34,1.601-1.092,2.97-2.256,4.106S337.206,203.321,335.331,203.321z M339.153,197.51
			c0.232-1.094,0.188-1.936-0.137-2.525c-0.322-0.59-0.9-0.885-1.734-0.885s-1.537,0.295-2.111,0.885
			c-0.572,0.59-0.977,1.432-1.209,2.525c-0.234,1.094-0.189,1.938,0.135,2.531c0.322,0.594,0.9,0.891,1.734,0.891
			s1.537-0.297,2.111-0.891C338.515,199.447,338.919,198.604,339.153,197.51z"/>
		<path fill="#04529D" d="M351.675,199.461c-0.047,0.506,0.01,0.867,0.17,1.08c0.268,0.38,0.877,0.57,1.83,0.57
			c0.561,0,1.023-0.084,1.391-0.25c0.367-0.167,0.588-0.417,0.66-0.75c0.066-0.32-0.016-0.564-0.25-0.73
			c-0.232-0.167-1.164-0.453-2.791-0.86c-1.166-0.307-1.953-0.69-2.359-1.15c-0.414-0.453-0.527-1.106-0.34-1.96
			c0.213-1.008,0.791-1.873,1.734-2.596c0.943-0.724,2.133-1.086,3.566-1.086c1.361,0,2.41,0.272,3.15,0.815
			c0.74,0.544,1.035,1.482,0.881,2.815h-2.85c0.033-0.366-0.012-0.656-0.131-0.869c-0.234-0.387-0.729-0.58-1.48-0.58
			c-0.621,0-1.082,0.096-1.387,0.289c-0.303,0.193-0.48,0.42-0.535,0.681c-0.072,0.327,0.018,0.563,0.271,0.71
			c0.246,0.153,1.18,0.417,2.801,0.79c1.074,0.267,1.838,0.671,2.291,1.21c0.445,0.547,0.582,1.23,0.41,2.051
			c-0.234,1.08-0.824,1.963-1.771,2.646c-0.947,0.684-2.26,1.025-3.941,1.025c-1.713,0-2.902-0.362-3.564-1.085
			c-0.664-0.724-0.879-1.646-0.646-2.766H351.675z"/>
		<path fill="#04529D" d="M364.841,203.321c-1.875,0-3.15-0.568-3.826-1.705c-0.678-1.137-0.846-2.506-0.506-4.106
			c0.334-1.573,1.084-2.937,2.25-4.09c1.168-1.154,2.688-1.73,4.563-1.73c1.873,0,3.146,0.576,3.82,1.73
			c0.674,1.153,0.844,2.517,0.51,4.09c-0.34,1.601-1.092,2.97-2.256,4.106S366.714,203.321,364.841,203.321z M368.661,197.51
			c0.232-1.094,0.188-1.936-0.135-2.525c-0.324-0.59-0.902-0.885-1.736-0.885s-1.537,0.295-2.109,0.885
			c-0.574,0.59-0.979,1.432-1.211,2.525c-0.234,1.094-0.188,1.938,0.135,2.531c0.324,0.594,0.902,0.891,1.736,0.891
			c0.832,0,1.537-0.297,2.109-0.891C368.024,199.447,368.427,198.604,368.661,197.51z"/>
		<path fill="#04529D" d="M380.491,195.949c0.033-0.406-0.027-0.773-0.182-1.1c-0.227-0.439-0.676-0.66-1.35-0.66
			c-0.961,0-1.717,0.477-2.27,1.43c-0.295,0.508-0.531,1.182-0.711,2.021c-0.166,0.8-0.211,1.443-0.131,1.93
			c0.146,0.907,0.691,1.361,1.631,1.361c0.668,0,1.18-0.181,1.535-0.541c0.357-0.359,0.625-0.826,0.807-1.4h2.91
			c-0.248,0.867-0.734,1.688-1.461,2.461c-1.16,1.247-2.617,1.87-4.371,1.87s-2.932-0.521-3.535-1.56
			c-0.604-1.041-0.729-2.391-0.375-4.051c0.393-1.875,1.158-3.332,2.295-4.371c1.137-1.041,2.51-1.561,4.115-1.561
			c1.367,0,2.422,0.307,3.162,0.92s1.023,1.697,0.85,3.25H380.491z"/>
		<path fill="#04529D" d="M386.187,192.039h2.891l-2.311,10.902h-2.891L386.187,192.039z M389.356,190.738h-2.891l0.561-2.63h2.891
			L389.356,190.738z"/>
		<path fill="#04529D" d="M395.165,196.311c0.547-0.067,0.943-0.15,1.191-0.25c0.439-0.174,0.699-0.443,0.779-0.811
			c0.094-0.447,0.004-0.756-0.27-0.926s-0.711-0.255-1.311-0.255c-0.674,0-1.188,0.167-1.541,0.501c-0.246,0.246-0.449,0.58-0.609,1
			h-2.75c0.266-0.954,0.699-1.737,1.299-2.352c0.961-0.959,2.357-1.439,4.191-1.439c1.193,0,2.203,0.236,3.031,0.71
			c0.826,0.474,1.1,1.366,0.82,2.681l-1.07,5.001c-0.074,0.347-0.154,0.767-0.24,1.261c-0.061,0.373-0.059,0.627,0.004,0.76
			c0.064,0.133,0.18,0.243,0.346,0.33l-0.08,0.42h-3.1c-0.041-0.221-0.059-0.427-0.051-0.62c0.006-0.193,0.027-0.413,0.061-0.66
			c-0.488,0.427-1.018,0.79-1.592,1.091c-0.693,0.353-1.426,0.529-2.199,0.529c-0.988,0-1.742-0.281-2.266-0.845
			s-0.676-1.362-0.455-2.396c0.287-1.34,1.01-2.311,2.17-2.91c0.633-0.327,1.518-0.561,2.65-0.701L395.165,196.311z
			 M396.616,197.641c-0.201,0.113-0.4,0.205-0.602,0.275c-0.199,0.069-0.467,0.135-0.799,0.194l-0.66,0.12
			c-0.627,0.106-1.088,0.236-1.381,0.391c-0.494,0.26-0.797,0.663-0.91,1.209c-0.107,0.487-0.049,0.84,0.176,1.056
			c0.223,0.217,0.527,0.325,0.914,0.325c0.613,0,1.217-0.18,1.811-0.54s1.004-1.017,1.23-1.97L396.616,197.641z"/>
		<path fill="#04529D" d="M403.761,202.941h-2.85l3.129-14.743h2.852L403.761,202.941z"/>
	</g>
	<g>
		<rect fill="#04529D" width="32.705" height="47.243"/>
		<path fill="#04529D" d="M69.044,10.902v41.79H32.705v-1.814H0v7.268h32.705v-1.817h36.339v7.269H32.705v-1.818H0v7.268h32.705
			v-1.818h36.339v7.269H32.705v-1.814H0v7.269h32.705v-1.818h36.339v7.268H32.705v-1.818H0v7.269h32.705v-1.817h36.339V96.3H32.705
			v-1.813H0.055c0,2.465,0.179,4.891,0.518,7.268h32.133v-1.818h36.339v7.268H32.705v-1.817H1.227
			c4.992,22.864,25.35,39.978,49.704,39.978c28.1,0,50.877-22.779,50.877-50.877V10.902H69.044z"/>
		<circle fill="#04529D" cx="50.875" cy="25.438" r="14.537"/>
	</g>
</g>
</svg>
